<mxfile host="Electron" modified="2023-09-20T19:59:00.233Z" agent="Mozilla/5.0 (Windows NT 10.0; Win64; x64) AppleWebKit/537.36 (KHTML, like Gecko) draw.io/21.6.8 Chrome/114.0.5735.289 Electron/25.5.0 Safari/537.36" etag="m4Om6c866offs-PVC3cO" version="21.6.8" type="device">
  <diagram id="C5RBs43oDa-KdzZeNtuy" name="Page-1">
    <mxGraphModel dx="1050" dy="621" grid="1" gridSize="10" guides="1" tooltips="1" connect="1" arrows="1" fold="1" page="1" pageScale="1" pageWidth="827" pageHeight="1169" math="0" shadow="0">
      <root>
        <mxCell id="WIyWlLk6GJQsqaUBKTNV-0" />
        <mxCell id="WIyWlLk6GJQsqaUBKTNV-1" parent="WIyWlLk6GJQsqaUBKTNV-0" />
        <mxCell id="i62QtaQMUS2ufrwjtjWt-19" value="TaiKhoanNguoiDung" style="swimlane;fontStyle=0;childLayout=stackLayout;horizontal=1;startSize=26;fillColor=none;horizontalStack=0;resizeParent=1;resizeParentMax=0;resizeLast=0;collapsible=1;marginBottom=0;whiteSpace=wrap;html=1;" parent="WIyWlLk6GJQsqaUBKTNV-1" vertex="1">
          <mxGeometry x="70" y="20" width="140" height="336" as="geometry" />
        </mxCell>
        <mxCell id="i62QtaQMUS2ufrwjtjWt-26" value="ID_User" style="text;strokeColor=none;fillColor=none;align=left;verticalAlign=top;spacingLeft=4;spacingRight=4;overflow=hidden;rotatable=0;points=[[0,0.5],[1,0.5]];portConstraint=eastwest;whiteSpace=wrap;html=1;" parent="i62QtaQMUS2ufrwjtjWt-19" vertex="1">
          <mxGeometry y="26" width="140" height="26" as="geometry" />
        </mxCell>
        <mxCell id="i62QtaQMUS2ufrwjtjWt-20" value="TenTaiKhoan" style="text;strokeColor=none;fillColor=none;align=left;verticalAlign=top;spacingLeft=4;spacingRight=4;overflow=hidden;rotatable=0;points=[[0,0.5],[1,0.5]];portConstraint=eastwest;whiteSpace=wrap;html=1;" parent="i62QtaQMUS2ufrwjtjWt-19" vertex="1">
          <mxGeometry y="52" width="140" height="26" as="geometry" />
        </mxCell>
        <mxCell id="OWgP7QyYcOHvQHCNmMPp-5" value="SDT" style="text;strokeColor=none;fillColor=none;align=left;verticalAlign=middle;spacingLeft=4;spacingRight=4;overflow=hidden;points=[[0,0.5],[1,0.5]];portConstraint=eastwest;rotatable=0;whiteSpace=wrap;html=1;" parent="i62QtaQMUS2ufrwjtjWt-19" vertex="1">
          <mxGeometry y="78" width="140" height="30" as="geometry" />
        </mxCell>
        <mxCell id="i62QtaQMUS2ufrwjtjWt-21" value="Email" style="text;strokeColor=none;fillColor=none;align=left;verticalAlign=top;spacingLeft=4;spacingRight=4;overflow=hidden;rotatable=0;points=[[0,0.5],[1,0.5]];portConstraint=eastwest;whiteSpace=wrap;html=1;" parent="i62QtaQMUS2ufrwjtjWt-19" vertex="1">
          <mxGeometry y="108" width="140" height="26" as="geometry" />
        </mxCell>
        <mxCell id="i62QtaQMUS2ufrwjtjWt-22" value="MatKhau" style="text;strokeColor=none;fillColor=none;align=left;verticalAlign=top;spacingLeft=4;spacingRight=4;overflow=hidden;rotatable=0;points=[[0,0.5],[1,0.5]];portConstraint=eastwest;whiteSpace=wrap;html=1;" parent="i62QtaQMUS2ufrwjtjWt-19" vertex="1">
          <mxGeometry y="134" width="140" height="26" as="geometry" />
        </mxCell>
        <mxCell id="i62QtaQMUS2ufrwjtjWt-24" value="Avatar" style="text;strokeColor=none;fillColor=none;align=left;verticalAlign=top;spacingLeft=4;spacingRight=4;overflow=hidden;rotatable=0;points=[[0,0.5],[1,0.5]];portConstraint=eastwest;whiteSpace=wrap;html=1;" parent="i62QtaQMUS2ufrwjtjWt-19" vertex="1">
          <mxGeometry y="160" width="140" height="26" as="geometry" />
        </mxCell>
        <mxCell id="OWgP7QyYcOHvQHCNmMPp-6" value="XacMinh" style="text;strokeColor=none;fillColor=none;align=left;verticalAlign=middle;spacingLeft=4;spacingRight=4;overflow=hidden;points=[[0,0.5],[1,0.5]];portConstraint=eastwest;rotatable=0;whiteSpace=wrap;html=1;" parent="i62QtaQMUS2ufrwjtjWt-19" vertex="1">
          <mxGeometry y="186" width="140" height="30" as="geometry" />
        </mxCell>
        <mxCell id="OWgP7QyYcOHvQHCNmMPp-57" value="HoTen" style="text;strokeColor=none;fillColor=none;align=left;verticalAlign=middle;spacingLeft=4;spacingRight=4;overflow=hidden;points=[[0,0.5],[1,0.5]];portConstraint=eastwest;rotatable=0;whiteSpace=wrap;html=1;" parent="i62QtaQMUS2ufrwjtjWt-19" vertex="1">
          <mxGeometry y="216" width="140" height="30" as="geometry" />
        </mxCell>
        <mxCell id="OWgP7QyYcOHvQHCNmMPp-60" value="DiaChi" style="text;strokeColor=none;fillColor=none;align=left;verticalAlign=middle;spacingLeft=4;spacingRight=4;overflow=hidden;points=[[0,0.5],[1,0.5]];portConstraint=eastwest;rotatable=0;whiteSpace=wrap;html=1;" parent="i62QtaQMUS2ufrwjtjWt-19" vertex="1">
          <mxGeometry y="246" width="140" height="30" as="geometry" />
        </mxCell>
        <mxCell id="OWgP7QyYcOHvQHCNmMPp-59" value="GioiTinh" style="text;strokeColor=none;fillColor=none;align=left;verticalAlign=middle;spacingLeft=4;spacingRight=4;overflow=hidden;points=[[0,0.5],[1,0.5]];portConstraint=eastwest;rotatable=0;whiteSpace=wrap;html=1;" parent="i62QtaQMUS2ufrwjtjWt-19" vertex="1">
          <mxGeometry y="276" width="140" height="30" as="geometry" />
        </mxCell>
        <mxCell id="OWgP7QyYcOHvQHCNmMPp-58" value="NgaySinh" style="text;strokeColor=none;fillColor=none;align=left;verticalAlign=middle;spacingLeft=4;spacingRight=4;overflow=hidden;points=[[0,0.5],[1,0.5]];portConstraint=eastwest;rotatable=0;whiteSpace=wrap;html=1;" parent="i62QtaQMUS2ufrwjtjWt-19" vertex="1">
          <mxGeometry y="306" width="140" height="30" as="geometry" />
        </mxCell>
        <mxCell id="OWgP7QyYcOHvQHCNmMPp-0" value="Admin" style="swimlane;fontStyle=0;childLayout=stackLayout;horizontal=1;startSize=26;fillColor=none;horizontalStack=0;resizeParent=1;resizeParentMax=0;resizeLast=0;collapsible=1;marginBottom=0;whiteSpace=wrap;html=1;" parent="WIyWlLk6GJQsqaUBKTNV-1" vertex="1">
          <mxGeometry x="650" y="40" width="140" height="164" as="geometry" />
        </mxCell>
        <mxCell id="OWgP7QyYcOHvQHCNmMPp-1" value="AdminID" style="text;strokeColor=none;fillColor=none;align=left;verticalAlign=top;spacingLeft=4;spacingRight=4;overflow=hidden;rotatable=0;points=[[0,0.5],[1,0.5]];portConstraint=eastwest;whiteSpace=wrap;html=1;" parent="OWgP7QyYcOHvQHCNmMPp-0" vertex="1">
          <mxGeometry y="26" width="140" height="26" as="geometry" />
        </mxCell>
        <mxCell id="OWgP7QyYcOHvQHCNmMPp-2" value="HoTen" style="text;strokeColor=none;fillColor=none;align=left;verticalAlign=top;spacingLeft=4;spacingRight=4;overflow=hidden;rotatable=0;points=[[0,0.5],[1,0.5]];portConstraint=eastwest;whiteSpace=wrap;html=1;" parent="OWgP7QyYcOHvQHCNmMPp-0" vertex="1">
          <mxGeometry y="52" width="140" height="26" as="geometry" />
        </mxCell>
        <mxCell id="OWgP7QyYcOHvQHCNmMPp-7" value="SDT" style="text;strokeColor=none;fillColor=none;align=left;verticalAlign=middle;spacingLeft=4;spacingRight=4;overflow=hidden;points=[[0,0.5],[1,0.5]];portConstraint=eastwest;rotatable=0;whiteSpace=wrap;html=1;" parent="OWgP7QyYcOHvQHCNmMPp-0" vertex="1">
          <mxGeometry y="78" width="140" height="30" as="geometry" />
        </mxCell>
        <mxCell id="OWgP7QyYcOHvQHCNmMPp-8" value="Email" style="text;strokeColor=none;fillColor=none;align=left;verticalAlign=middle;spacingLeft=4;spacingRight=4;overflow=hidden;points=[[0,0.5],[1,0.5]];portConstraint=eastwest;rotatable=0;whiteSpace=wrap;html=1;" parent="OWgP7QyYcOHvQHCNmMPp-0" vertex="1">
          <mxGeometry y="108" width="140" height="30" as="geometry" />
        </mxCell>
        <mxCell id="OWgP7QyYcOHvQHCNmMPp-3" value="MatKhau" style="text;strokeColor=none;fillColor=none;align=left;verticalAlign=top;spacingLeft=4;spacingRight=4;overflow=hidden;rotatable=0;points=[[0,0.5],[1,0.5]];portConstraint=eastwest;whiteSpace=wrap;html=1;" parent="OWgP7QyYcOHvQHCNmMPp-0" vertex="1">
          <mxGeometry y="138" width="140" height="26" as="geometry" />
        </mxCell>
        <mxCell id="OWgP7QyYcOHvQHCNmMPp-9" value="Quan" style="swimlane;fontStyle=0;childLayout=stackLayout;horizontal=1;startSize=26;fillColor=none;horizontalStack=0;resizeParent=1;resizeParentMax=0;resizeLast=0;collapsible=1;marginBottom=0;whiteSpace=wrap;html=1;" parent="WIyWlLk6GJQsqaUBKTNV-1" vertex="1">
          <mxGeometry x="70" y="440" width="140" height="78" as="geometry" />
        </mxCell>
        <mxCell id="OWgP7QyYcOHvQHCNmMPp-10" value="ID_Quan" style="text;strokeColor=none;fillColor=none;align=left;verticalAlign=top;spacingLeft=4;spacingRight=4;overflow=hidden;rotatable=0;points=[[0,0.5],[1,0.5]];portConstraint=eastwest;whiteSpace=wrap;html=1;" parent="OWgP7QyYcOHvQHCNmMPp-9" vertex="1">
          <mxGeometry y="26" width="140" height="26" as="geometry" />
        </mxCell>
        <mxCell id="OWgP7QyYcOHvQHCNmMPp-11" value="TenQuan" style="text;strokeColor=none;fillColor=none;align=left;verticalAlign=top;spacingLeft=4;spacingRight=4;overflow=hidden;rotatable=0;points=[[0,0.5],[1,0.5]];portConstraint=eastwest;whiteSpace=wrap;html=1;" parent="OWgP7QyYcOHvQHCNmMPp-9" vertex="1">
          <mxGeometry y="52" width="140" height="26" as="geometry" />
        </mxCell>
        <mxCell id="OWgP7QyYcOHvQHCNmMPp-13" value="Phuong" style="swimlane;fontStyle=0;childLayout=stackLayout;horizontal=1;startSize=26;fillColor=none;horizontalStack=0;resizeParent=1;resizeParentMax=0;resizeLast=0;collapsible=1;marginBottom=0;whiteSpace=wrap;html=1;" parent="WIyWlLk6GJQsqaUBKTNV-1" vertex="1">
          <mxGeometry x="70" y="620" width="140" height="108" as="geometry" />
        </mxCell>
        <mxCell id="OWgP7QyYcOHvQHCNmMPp-14" value="ID_Phuong" style="text;strokeColor=none;fillColor=none;align=left;verticalAlign=top;spacingLeft=4;spacingRight=4;overflow=hidden;rotatable=0;points=[[0,0.5],[1,0.5]];portConstraint=eastwest;whiteSpace=wrap;html=1;" parent="OWgP7QyYcOHvQHCNmMPp-13" vertex="1">
          <mxGeometry y="26" width="140" height="26" as="geometry" />
        </mxCell>
        <mxCell id="OWgP7QyYcOHvQHCNmMPp-18" value="ID_Quan" style="text;strokeColor=none;fillColor=none;align=left;verticalAlign=middle;spacingLeft=4;spacingRight=4;overflow=hidden;points=[[0,0.5],[1,0.5]];portConstraint=eastwest;rotatable=0;whiteSpace=wrap;html=1;" parent="OWgP7QyYcOHvQHCNmMPp-13" vertex="1">
          <mxGeometry y="52" width="140" height="30" as="geometry" />
        </mxCell>
        <mxCell id="OWgP7QyYcOHvQHCNmMPp-15" value="TenPhuong" style="text;strokeColor=none;fillColor=none;align=left;verticalAlign=top;spacingLeft=4;spacingRight=4;overflow=hidden;rotatable=0;points=[[0,0.5],[1,0.5]];portConstraint=eastwest;whiteSpace=wrap;html=1;" parent="OWgP7QyYcOHvQHCNmMPp-13" vertex="1">
          <mxGeometry y="82" width="140" height="26" as="geometry" />
        </mxCell>
        <mxCell id="OWgP7QyYcOHvQHCNmMPp-19" value="DiaChi" style="swimlane;fontStyle=0;childLayout=stackLayout;horizontal=1;startSize=26;fillColor=none;horizontalStack=0;resizeParent=1;resizeParentMax=0;resizeLast=0;collapsible=1;marginBottom=0;whiteSpace=wrap;html=1;" parent="WIyWlLk6GJQsqaUBKTNV-1" vertex="1">
          <mxGeometry x="70" y="780" width="140" height="134" as="geometry" />
        </mxCell>
        <mxCell id="OWgP7QyYcOHvQHCNmMPp-20" value="ID_DiaChi" style="text;strokeColor=none;fillColor=none;align=left;verticalAlign=top;spacingLeft=4;spacingRight=4;overflow=hidden;rotatable=0;points=[[0,0.5],[1,0.5]];portConstraint=eastwest;whiteSpace=wrap;html=1;" parent="OWgP7QyYcOHvQHCNmMPp-19" vertex="1">
          <mxGeometry y="26" width="140" height="26" as="geometry" />
        </mxCell>
        <mxCell id="OWgP7QyYcOHvQHCNmMPp-21" value="ID_Quan" style="text;strokeColor=none;fillColor=none;align=left;verticalAlign=top;spacingLeft=4;spacingRight=4;overflow=hidden;rotatable=0;points=[[0,0.5],[1,0.5]];portConstraint=eastwest;whiteSpace=wrap;html=1;" parent="OWgP7QyYcOHvQHCNmMPp-19" vertex="1">
          <mxGeometry y="52" width="140" height="26" as="geometry" />
        </mxCell>
        <mxCell id="OWgP7QyYcOHvQHCNmMPp-22" value="TenDuong" style="text;strokeColor=none;fillColor=none;align=left;verticalAlign=top;spacingLeft=4;spacingRight=4;overflow=hidden;rotatable=0;points=[[0,0.5],[1,0.5]];portConstraint=eastwest;whiteSpace=wrap;html=1;" parent="OWgP7QyYcOHvQHCNmMPp-19" vertex="1">
          <mxGeometry y="78" width="140" height="26" as="geometry" />
        </mxCell>
        <mxCell id="OWgP7QyYcOHvQHCNmMPp-23" value="SoNha" style="text;strokeColor=none;fillColor=none;align=left;verticalAlign=middle;spacingLeft=4;spacingRight=4;overflow=hidden;points=[[0,0.5],[1,0.5]];portConstraint=eastwest;rotatable=0;whiteSpace=wrap;html=1;" parent="OWgP7QyYcOHvQHCNmMPp-19" vertex="1">
          <mxGeometry y="104" width="140" height="30" as="geometry" />
        </mxCell>
        <mxCell id="OWgP7QyYcOHvQHCNmMPp-25" value="NhaTro" style="swimlane;fontStyle=0;childLayout=stackLayout;horizontal=1;startSize=26;fillColor=none;horizontalStack=0;resizeParent=1;resizeParentMax=0;resizeLast=0;collapsible=1;marginBottom=0;whiteSpace=wrap;html=1;" parent="WIyWlLk6GJQsqaUBKTNV-1" vertex="1">
          <mxGeometry x="360" y="44" width="140" height="576" as="geometry" />
        </mxCell>
        <mxCell id="OWgP7QyYcOHvQHCNmMPp-26" value="ID_NhaTro" style="text;strokeColor=none;fillColor=none;align=left;verticalAlign=top;spacingLeft=4;spacingRight=4;overflow=hidden;rotatable=0;points=[[0,0.5],[1,0.5]];portConstraint=eastwest;whiteSpace=wrap;html=1;" parent="OWgP7QyYcOHvQHCNmMPp-25" vertex="1">
          <mxGeometry y="26" width="140" height="26" as="geometry" />
        </mxCell>
        <mxCell id="OWgP7QyYcOHvQHCNmMPp-27" value="ID_LoaiNhaTro" style="text;strokeColor=none;fillColor=none;align=left;verticalAlign=top;spacingLeft=4;spacingRight=4;overflow=hidden;rotatable=0;points=[[0,0.5],[1,0.5]];portConstraint=eastwest;whiteSpace=wrap;html=1;" parent="OWgP7QyYcOHvQHCNmMPp-25" vertex="1">
          <mxGeometry y="52" width="140" height="26" as="geometry" />
        </mxCell>
        <mxCell id="OWgP7QyYcOHvQHCNmMPp-33" value="SoLuongPhong" style="text;strokeColor=none;fillColor=none;align=left;verticalAlign=middle;spacingLeft=4;spacingRight=4;overflow=hidden;points=[[0,0.5],[1,0.5]];portConstraint=eastwest;rotatable=0;whiteSpace=wrap;html=1;" parent="OWgP7QyYcOHvQHCNmMPp-25" vertex="1">
          <mxGeometry y="78" width="140" height="30" as="geometry" />
        </mxCell>
        <mxCell id="OWgP7QyYcOHvQHCNmMPp-34" value="SucChua" style="text;strokeColor=none;fillColor=none;align=left;verticalAlign=middle;spacingLeft=4;spacingRight=4;overflow=hidden;points=[[0,0.5],[1,0.5]];portConstraint=eastwest;rotatable=0;whiteSpace=wrap;html=1;" parent="OWgP7QyYcOHvQHCNmMPp-25" vertex="1">
          <mxGeometry y="108" width="140" height="30" as="geometry" />
        </mxCell>
        <mxCell id="OWgP7QyYcOHvQHCNmMPp-35" value="GioiTinh" style="text;strokeColor=none;fillColor=none;align=left;verticalAlign=middle;spacingLeft=4;spacingRight=4;overflow=hidden;points=[[0,0.5],[1,0.5]];portConstraint=eastwest;rotatable=0;whiteSpace=wrap;html=1;" parent="OWgP7QyYcOHvQHCNmMPp-25" vertex="1">
          <mxGeometry y="138" width="140" height="30" as="geometry" />
        </mxCell>
        <mxCell id="OWgP7QyYcOHvQHCNmMPp-36" value="DienTich" style="text;strokeColor=none;fillColor=none;align=left;verticalAlign=middle;spacingLeft=4;spacingRight=4;overflow=hidden;points=[[0,0.5],[1,0.5]];portConstraint=eastwest;rotatable=0;whiteSpace=wrap;html=1;" parent="OWgP7QyYcOHvQHCNmMPp-25" vertex="1">
          <mxGeometry y="168" width="140" height="30" as="geometry" />
        </mxCell>
        <mxCell id="OWgP7QyYcOHvQHCNmMPp-38" value="ChiPhi" style="text;strokeColor=none;fillColor=none;align=left;verticalAlign=middle;spacingLeft=4;spacingRight=4;overflow=hidden;points=[[0,0.5],[1,0.5]];portConstraint=eastwest;rotatable=0;whiteSpace=wrap;html=1;" parent="OWgP7QyYcOHvQHCNmMPp-25" vertex="1">
          <mxGeometry y="198" width="140" height="30" as="geometry" />
        </mxCell>
        <mxCell id="OWgP7QyYcOHvQHCNmMPp-39" value="DatCoc" style="text;strokeColor=none;fillColor=none;align=left;verticalAlign=middle;spacingLeft=4;spacingRight=4;overflow=hidden;points=[[0,0.5],[1,0.5]];portConstraint=eastwest;rotatable=0;whiteSpace=wrap;html=1;" parent="OWgP7QyYcOHvQHCNmMPp-25" vertex="1">
          <mxGeometry y="228" width="140" height="30" as="geometry" />
        </mxCell>
        <mxCell id="OWgP7QyYcOHvQHCNmMPp-41" value="Dien" style="text;strokeColor=none;fillColor=none;align=left;verticalAlign=middle;spacingLeft=4;spacingRight=4;overflow=hidden;points=[[0,0.5],[1,0.5]];portConstraint=eastwest;rotatable=0;whiteSpace=wrap;html=1;" parent="OWgP7QyYcOHvQHCNmMPp-25" vertex="1">
          <mxGeometry y="258" width="140" height="30" as="geometry" />
        </mxCell>
        <mxCell id="OWgP7QyYcOHvQHCNmMPp-43" value="Nuoc" style="text;strokeColor=none;fillColor=none;align=left;verticalAlign=middle;spacingLeft=4;spacingRight=4;overflow=hidden;points=[[0,0.5],[1,0.5]];portConstraint=eastwest;rotatable=0;whiteSpace=wrap;html=1;" parent="OWgP7QyYcOHvQHCNmMPp-25" vertex="1">
          <mxGeometry y="288" width="140" height="30" as="geometry" />
        </mxCell>
        <mxCell id="OWgP7QyYcOHvQHCNmMPp-42" value="Internet" style="text;strokeColor=none;fillColor=none;align=left;verticalAlign=middle;spacingLeft=4;spacingRight=4;overflow=hidden;points=[[0,0.5],[1,0.5]];portConstraint=eastwest;rotatable=0;whiteSpace=wrap;html=1;" parent="OWgP7QyYcOHvQHCNmMPp-25" vertex="1">
          <mxGeometry y="318" width="140" height="30" as="geometry" />
        </mxCell>
        <mxCell id="RFHugqaS4faMrQz0gEub-9" value="GioMoCua" style="text;strokeColor=none;fillColor=none;align=left;verticalAlign=middle;spacingLeft=4;spacingRight=4;overflow=hidden;points=[[0,0.5],[1,0.5]];portConstraint=eastwest;rotatable=0;whiteSpace=wrap;html=1;" parent="OWgP7QyYcOHvQHCNmMPp-25" vertex="1">
          <mxGeometry y="348" width="140" height="30" as="geometry" />
        </mxCell>
        <mxCell id="RFHugqaS4faMrQz0gEub-10" value="GioDongCua" style="text;strokeColor=none;fillColor=none;align=left;verticalAlign=middle;spacingLeft=4;spacingRight=4;overflow=hidden;points=[[0,0.5],[1,0.5]];portConstraint=eastwest;rotatable=0;whiteSpace=wrap;html=1;" parent="OWgP7QyYcOHvQHCNmMPp-25" vertex="1">
          <mxGeometry y="378" width="140" height="30" as="geometry" />
        </mxCell>
        <mxCell id="OWgP7QyYcOHvQHCNmMPp-28" value="ID_DiaChi" style="text;strokeColor=none;fillColor=none;align=left;verticalAlign=top;spacingLeft=4;spacingRight=4;overflow=hidden;rotatable=0;points=[[0,0.5],[1,0.5]];portConstraint=eastwest;whiteSpace=wrap;html=1;" parent="OWgP7QyYcOHvQHCNmMPp-25" vertex="1">
          <mxGeometry y="408" width="140" height="26" as="geometry" />
        </mxCell>
        <mxCell id="RFHugqaS4faMrQz0gEub-25" value="ID_User" style="text;strokeColor=none;fillColor=none;align=left;verticalAlign=middle;spacingLeft=4;spacingRight=4;overflow=hidden;points=[[0,0.5],[1,0.5]];portConstraint=eastwest;rotatable=0;whiteSpace=wrap;html=1;" parent="OWgP7QyYcOHvQHCNmMPp-25" vertex="1">
          <mxGeometry y="434" width="140" height="30" as="geometry" />
        </mxCell>
        <mxCell id="RFHugqaS4faMrQz0gEub-7" value="TenBaiDang" style="text;strokeColor=none;fillColor=none;align=left;verticalAlign=top;spacingLeft=4;spacingRight=4;overflow=hidden;rotatable=0;points=[[0,0.5],[1,0.5]];portConstraint=eastwest;whiteSpace=wrap;html=1;" parent="OWgP7QyYcOHvQHCNmMPp-25" vertex="1">
          <mxGeometry y="464" width="140" height="26" as="geometry" />
        </mxCell>
        <mxCell id="RFHugqaS4faMrQz0gEub-8" value="MoTa" style="text;strokeColor=none;fillColor=none;align=left;verticalAlign=top;spacingLeft=4;spacingRight=4;overflow=hidden;rotatable=0;points=[[0,0.5],[1,0.5]];portConstraint=eastwest;whiteSpace=wrap;html=1;" parent="OWgP7QyYcOHvQHCNmMPp-25" vertex="1">
          <mxGeometry y="490" width="140" height="26" as="geometry" />
        </mxCell>
        <mxCell id="RFHugqaS4faMrQz0gEub-22" value="TuongTac" style="text;strokeColor=none;fillColor=none;align=left;verticalAlign=middle;spacingLeft=4;spacingRight=4;overflow=hidden;points=[[0,0.5],[1,0.5]];portConstraint=eastwest;rotatable=0;whiteSpace=wrap;html=1;" parent="OWgP7QyYcOHvQHCNmMPp-25" vertex="1">
          <mxGeometry y="516" width="140" height="30" as="geometry" />
        </mxCell>
        <mxCell id="RFHugqaS4faMrQz0gEub-23" value="YeuThich" style="text;strokeColor=none;fillColor=none;align=left;verticalAlign=middle;spacingLeft=4;spacingRight=4;overflow=hidden;points=[[0,0.5],[1,0.5]];portConstraint=eastwest;rotatable=0;whiteSpace=wrap;html=1;" parent="OWgP7QyYcOHvQHCNmMPp-25" vertex="1">
          <mxGeometry y="546" width="140" height="30" as="geometry" />
        </mxCell>
        <mxCell id="OWgP7QyYcOHvQHCNmMPp-29" value="LoaiNhaTro" style="swimlane;fontStyle=0;childLayout=stackLayout;horizontal=1;startSize=26;fillColor=none;horizontalStack=0;resizeParent=1;resizeParentMax=0;resizeLast=0;collapsible=1;marginBottom=0;whiteSpace=wrap;html=1;" parent="WIyWlLk6GJQsqaUBKTNV-1" vertex="1">
          <mxGeometry x="640" y="560" width="140" height="78" as="geometry" />
        </mxCell>
        <mxCell id="OWgP7QyYcOHvQHCNmMPp-30" value="ID_LoaiNhaTro" style="text;strokeColor=none;fillColor=none;align=left;verticalAlign=top;spacingLeft=4;spacingRight=4;overflow=hidden;rotatable=0;points=[[0,0.5],[1,0.5]];portConstraint=eastwest;whiteSpace=wrap;html=1;" parent="OWgP7QyYcOHvQHCNmMPp-29" vertex="1">
          <mxGeometry y="26" width="140" height="26" as="geometry" />
        </mxCell>
        <mxCell id="OWgP7QyYcOHvQHCNmMPp-31" value="TenLoai" style="text;strokeColor=none;fillColor=none;align=left;verticalAlign=top;spacingLeft=4;spacingRight=4;overflow=hidden;rotatable=0;points=[[0,0.5],[1,0.5]];portConstraint=eastwest;whiteSpace=wrap;html=1;" parent="OWgP7QyYcOHvQHCNmMPp-29" vertex="1">
          <mxGeometry y="52" width="140" height="26" as="geometry" />
        </mxCell>
        <mxCell id="OWgP7QyYcOHvQHCNmMPp-44" value="TienIch" style="swimlane;fontStyle=0;childLayout=stackLayout;horizontal=1;startSize=26;fillColor=none;horizontalStack=0;resizeParent=1;resizeParentMax=0;resizeLast=0;collapsible=1;marginBottom=0;whiteSpace=wrap;html=1;" parent="WIyWlLk6GJQsqaUBKTNV-1" vertex="1">
          <mxGeometry x="650" y="276" width="140" height="78" as="geometry" />
        </mxCell>
        <mxCell id="OWgP7QyYcOHvQHCNmMPp-45" value="ID_TienIch" style="text;strokeColor=none;fillColor=none;align=left;verticalAlign=top;spacingLeft=4;spacingRight=4;overflow=hidden;rotatable=0;points=[[0,0.5],[1,0.5]];portConstraint=eastwest;whiteSpace=wrap;html=1;" parent="OWgP7QyYcOHvQHCNmMPp-44" vertex="1">
          <mxGeometry y="26" width="140" height="26" as="geometry" />
        </mxCell>
        <mxCell id="OWgP7QyYcOHvQHCNmMPp-46" value="Name" style="text;strokeColor=none;fillColor=none;align=left;verticalAlign=top;spacingLeft=4;spacingRight=4;overflow=hidden;rotatable=0;points=[[0,0.5],[1,0.5]];portConstraint=eastwest;whiteSpace=wrap;html=1;" parent="OWgP7QyYcOHvQHCNmMPp-44" vertex="1">
          <mxGeometry y="52" width="140" height="26" as="geometry" />
        </mxCell>
        <mxCell id="OWgP7QyYcOHvQHCNmMPp-48" value="TienIch_NhaTro" style="swimlane;fontStyle=0;childLayout=stackLayout;horizontal=1;startSize=26;fillColor=none;horizontalStack=0;resizeParent=1;resizeParentMax=0;resizeLast=0;collapsible=1;marginBottom=0;whiteSpace=wrap;html=1;" parent="WIyWlLk6GJQsqaUBKTNV-1" vertex="1">
          <mxGeometry x="650" y="420" width="140" height="78" as="geometry" />
        </mxCell>
        <mxCell id="OWgP7QyYcOHvQHCNmMPp-49" value="ID_TienIch" style="text;strokeColor=none;fillColor=none;align=left;verticalAlign=top;spacingLeft=4;spacingRight=4;overflow=hidden;rotatable=0;points=[[0,0.5],[1,0.5]];portConstraint=eastwest;whiteSpace=wrap;html=1;" parent="OWgP7QyYcOHvQHCNmMPp-48" vertex="1">
          <mxGeometry y="26" width="140" height="26" as="geometry" />
        </mxCell>
        <mxCell id="OWgP7QyYcOHvQHCNmMPp-50" value="ID_NhaTro" style="text;strokeColor=none;fillColor=none;align=left;verticalAlign=top;spacingLeft=4;spacingRight=4;overflow=hidden;rotatable=0;points=[[0,0.5],[1,0.5]];portConstraint=eastwest;whiteSpace=wrap;html=1;" parent="OWgP7QyYcOHvQHCNmMPp-48" vertex="1">
          <mxGeometry y="52" width="140" height="26" as="geometry" />
        </mxCell>
        <mxCell id="RFHugqaS4faMrQz0gEub-11" value="" style="endArrow=none;html=1;rounded=0;exitX=0.248;exitY=1.066;exitDx=0;exitDy=0;exitPerimeter=0;entryX=0.177;entryY=-0.012;entryDx=0;entryDy=0;entryPerimeter=0;" parent="WIyWlLk6GJQsqaUBKTNV-1" source="RFHugqaS4faMrQz0gEub-14" target="RFHugqaS4faMrQz0gEub-12" edge="1">
          <mxGeometry width="50" height="50" relative="1" as="geometry">
            <mxPoint x="180" y="570" as="sourcePoint" />
            <mxPoint x="150" y="520" as="targetPoint" />
            <Array as="points">
              <mxPoint x="150" y="570" />
            </Array>
          </mxGeometry>
        </mxCell>
        <mxCell id="RFHugqaS4faMrQz0gEub-12" value="1" style="text;html=1;align=center;verticalAlign=middle;resizable=0;points=[];autosize=1;strokeColor=none;fillColor=none;" parent="WIyWlLk6GJQsqaUBKTNV-1" vertex="1">
          <mxGeometry x="145" y="518" width="30" height="30" as="geometry" />
        </mxCell>
        <mxCell id="RFHugqaS4faMrQz0gEub-14" value="1..*" style="text;html=1;align=center;verticalAlign=middle;resizable=0;points=[];autosize=1;strokeColor=none;fillColor=none;" parent="WIyWlLk6GJQsqaUBKTNV-1" vertex="1">
          <mxGeometry x="140" y="588" width="40" height="30" as="geometry" />
        </mxCell>
        <mxCell id="RFHugqaS4faMrQz0gEub-18" value="" style="endArrow=none;html=1;rounded=0;entryX=0.529;entryY=0.938;entryDx=0;entryDy=0;entryPerimeter=0;exitX=0.531;exitY=0.006;exitDx=0;exitDy=0;exitPerimeter=0;" parent="WIyWlLk6GJQsqaUBKTNV-1" source="OWgP7QyYcOHvQHCNmMPp-19" target="OWgP7QyYcOHvQHCNmMPp-15" edge="1">
          <mxGeometry width="50" height="50" relative="1" as="geometry">
            <mxPoint x="120" y="790" as="sourcePoint" />
            <mxPoint x="170" y="740" as="targetPoint" />
          </mxGeometry>
        </mxCell>
        <mxCell id="RFHugqaS4faMrQz0gEub-19" value="1" style="text;html=1;align=center;verticalAlign=middle;resizable=0;points=[];autosize=1;strokeColor=none;fillColor=none;" parent="WIyWlLk6GJQsqaUBKTNV-1" vertex="1">
          <mxGeometry x="135" y="720" width="30" height="30" as="geometry" />
        </mxCell>
        <mxCell id="RFHugqaS4faMrQz0gEub-20" value="1..*" style="text;html=1;align=center;verticalAlign=middle;resizable=0;points=[];autosize=1;strokeColor=none;fillColor=none;" parent="WIyWlLk6GJQsqaUBKTNV-1" vertex="1">
          <mxGeometry x="135" y="758" width="40" height="30" as="geometry" />
        </mxCell>
      </root>
    </mxGraphModel>
  </diagram>
</mxfile>
